<?xml version="1.0" encoding="UTF-8" standalone="no"?>
<svg
   xmlns:dc="http://purl.org/dc/elements/1.1/"
   xmlns:cc="http://creativecommons.org/ns#"
   xmlns:rdf="http://www.w3.org/1999/02/22-rdf-syntax-ns#"
   xmlns:svg="http://www.w3.org/2000/svg"
   xmlns="http://www.w3.org/2000/svg"
   xmlns:sodipodi="http://sodipodi.sourceforge.net/DTD/sodipodi-0.dtd"
   xmlns:inkscape="http://www.inkscape.org/namespaces/inkscape"
   width="43"
   height="41"
   viewBox="0 0 43 41"
   fill="none"
   version="1.1"
   id="svg4"
   sodipodi:docname="corazon.svg"
   inkscape:version="1.0.2 (e86c870879, 2021-01-15)">
  <metadata
     id="metadata10">
    <rdf:RDF>
      <cc:Work
         rdf:about="">
        <dc:format>image/svg+xml</dc:format>
        <dc:type
           rdf:resource="http://purl.org/dc/dcmitype/StillImage" />
        <dc:title></dc:title>
      </cc:Work>
    </rdf:RDF>
  </metadata>
  <defs
     id="defs8" />
  <sodipodi:namedview
     pagecolor="#ffffff"
     bordercolor="#666666"
     borderopacity="1"
     objecttolerance="10"
     gridtolerance="10"
     guidetolerance="10"
     inkscape:pageopacity="0"
     inkscape:pageshadow="2"
     inkscape:window-width="701"
     inkscape:window-height="480"
     id="namedview6"
     showgrid="false"
     inkscape:zoom="12.926829"
     inkscape:cx="21.5"
     inkscape:cy="20.5"
     inkscape:window-x="0"
     inkscape:window-y="0"
     inkscape:window-maximized="0"
     inkscape:current-layer="svg4" />
  <path
     d="M9.32677 25.6728C2.08247 20.5744 -4.33625 10.8496 3.77736 3.51232C4.06167 3.24175 4.37331 2.98709 4.67948 2.74304C6.96485 1.07716 9.57827 -0.0157445 12.6236 0.000171544C17.2545 0.000171544 20.8958 3.52293 22.875 7.27382L19.3376 6.98203C20.7044 5.28431 22.2736 3.889 24.1653 2.74304C31.0706 -1.41636 37.6424 2.17537 41.5297 8.27654C43.0825 11.4173 43.3996 15.078 42.5084 18.4469C40.9119 24.3518 35.45 28.3414 29.917 30.575C28.572 31.1108 26.9044 31.6679 25.5212 32.0976C19.9663 34.0765 14.1763 36.4798 10.289 41C12.219 37.4348 15.658 34.8299 19.1025 32.6918C22.5305 30.4689 26.4014 29.2698 29.9279 27.2856C36.4013 23.7841 41.0595 17.7307 37.8939 10.4783C35.5593 7.02977 31.5572 3.23644 26.385 6.32416C25.0182 7.10405 23.706 8.21818 22.6891 9.41719L20.5787 11.9744C18.8346 8.35611 16.757 3.84656 12.4705 3.60251C9.41424 3.37969 6.02993 5.13576 4.11634 7.49665C-0.552817 13.3432 5.06767 21.0253 9.33223 25.6728H9.32677Z"
     fill="white"
     id="path2" />
</svg>
